<svg id="Capa_1" data-name="Capa 1" xmlns="http://www.w3.org/2000/svg" viewBox="0 0 139 61"><path d="M117.05,16c-9-2.25-18-4.59-26.94-7.22-3.93-1.15-7.84-2.26-11.86-3.06-9.73-1.94-19.61-3.5-29.48-4.52C40.74.4,32.61.1,24.64,1.59c-9,1.69-21.11,6-21,17.07.06,6.7,4.51,12.16,9.45,16.19a72.26,72.26,0,0,0,16.59,10C41.8,50.24,55,53.2,68,55.62c13.71,2.56,28.14,3.93,41.77.13C121,52.63,131.45,46.1,137.63,36c1.48-2.4,2-4.88.15-7.3a16.39,16.39,0,0,0-3-2.79c-1.37-1.09-2.78-2.14-4.23-3.13a53.24,53.24,0,0,0-11.74-6.22,17.5,17.5,0,0,0-1.73-.57c-1.87-.47-2.67,2.42-.8,2.9a28.72,28.72,0,0,1,5.84,2.37,58.81,58.81,0,0,1,6.58,3.88q1.94,1.3,3.78,2.74a13.21,13.21,0,0,1,3.13,2.88c1.36,2.13-1.21,4.91-2.45,6.55a37.88,37.88,0,0,1-5.68,6,46.73,46.73,0,0,1-14.11,8.11C100.91,56,87.4,55.7,74.49,53.71c-6.7-1-13.35-2.44-19.94-4a154,154,0,0,1-17.49-5.08,81.41,81.41,0,0,1-16.57-8.07c-5-3.22-10.52-7.31-12.84-13a11.84,11.84,0,0,1-.3-8.85,12.51,12.51,0,0,1,4.87-5.56C15.78,6.81,20,5.63,24.09,4.75c7.13-1.51,14.45-1.42,21.68-.81,10,.85,19.88,2.48,29.7,4.32A118.58,118.58,0,0,1,87.07,11Q97,14,107,16.58c3.07.8,6.15,1.58,9.22,2.35C118.13,19.39,118.93,16.5,117.05,16Z"/><path d="M109.94,10.24c-9.29,0-18.59,0-27.88-.34-4.09-.15-8.16-.26-12.25,0-9.82.53-19.67,1.45-29.39,2.87-7.91,1.16-15.78,2.82-23.09,6.14C8.86,22.7-2.06,29.86.68,40.71,2.3,47.09,7.83,51.31,13.5,54a72.78,72.78,0,0,0,19.64,5.9c13.6,2.18,27.69,1.71,41.38.66,13.24-1,26.78-3.4,38.41-10.15,9.86-5.72,18.32-14.5,21.82-25.53a8.74,8.74,0,0,0,.64-3.74,5.56,5.56,0,0,0-2.2-3.71,16.45,16.45,0,0,0-3.62-2c-1.61-.71-3.23-1.38-4.88-2a53.43,53.43,0,0,0-12.93-3.13c-.6-.06-1.21-.12-1.82-.12a1.5,1.5,0,0,0,0,3,29.13,29.13,0,0,1,6.23.86,60.42,60.42,0,0,1,7.34,2.14c1.46.53,2.91,1.1,4.33,1.73a13.08,13.08,0,0,1,3.75,2c1,.92.92,2,.55,3.2a39.77,39.77,0,0,1-1.43,4,38.13,38.13,0,0,1-4,7.06,46.26,46.26,0,0,1-11.46,11.13C104.86,52.58,92.38,55.7,80,57.06c-6.63.73-13.31,1-20,1.21a169,169,0,0,1-19.36-.44A83.58,83.58,0,0,1,21.41,54C15.73,52.05,9.19,49.4,5.63,44.29A11.68,11.68,0,0,1,3.35,36,13.05,13.05,0,0,1,7.1,29a36.06,36.06,0,0,1,10.51-7c6.5-3.13,13.58-4.79,20.66-6C48,14.47,57.93,13.62,67.79,13a115.78,115.78,0,0,1,11.93-.16q10.35.38,20.71.43,4.75,0,9.51,0A1.5,1.5,0,0,0,109.94,10.24Z"/><ellipse cx="74.26" cy="34.6" rx="8.74" ry="8.5"/><path d="M92.21,26.76c-5.34-.65-10.68-1.73-16-2.14-4.11-.31-8.24-.51-12.36-.44a34,34,0,0,0-9.09,1.16C50.87,26.48,46,29.24,48,34c1,2.37,3.16,3.93,5.35,5.09A36.14,36.14,0,0,0,60.89,42a84.26,84.26,0,0,0,16.68,2.29c5.47.31,11.2.13,16.32-2A18,18,0,0,0,100.26,38c1.34-1.47,3.55-4.26,2.46-6.36a6,6,0,0,0-3-2.29A34.2,34.2,0,0,0,96,27.71a17.42,17.42,0,0,0-3.76-.95c-1.91-.25-1.89,2.75,0,3-.84-.11.1,0,.29.07.61.13,1.21.29,1.81.48a18.86,18.86,0,0,1,5.6,2.51c.25.19.16.18.13-.06a1,1,0,0,1-.13.36c-.23.4-.4.83-.64,1.22a10.76,10.76,0,0,1-1.88,2.26,15.61,15.61,0,0,1-5.19,3.12c-4.65,1.76-9.73,1.83-14.63,1.56a83.75,83.75,0,0,1-14.81-1.92A34.45,34.45,0,0,1,55.84,37c-1.89-.91-4.26-2.08-5.1-4.14-1.31-3.21,4.1-4.54,6.34-5a39.07,39.07,0,0,1,8.77-.65c3.49,0,7,.18,10.48.46l1.3.11.57.07.26,0c.81.11,1.62.24,2.43.37,3.76.59,7.54,1.08,11.32,1.54C94.12,30,94.11,27,92.21,26.76Z"/></svg>