<svg id="Capa_1" data-name="Capa 1" xmlns="http://www.w3.org/2000/svg" xmlns:xlink="http://www.w3.org/1999/xlink" viewBox="0 0 158 147"><defs><style>.cls-1,.cls-2,.cls-3,.cls-5,.cls-6,.cls-7{fill:none;stroke-miterlimit:10;}.cls-1{stroke:url(#Degradado_sin_nombre_4);}.cls-2,.cls-6{stroke-dasharray:3.01 3.01;}.cls-2{stroke:url(#Degradado_sin_nombre_4-2);}.cls-3{stroke:url(#Degradado_sin_nombre_4-3);}.cls-4{fill:url(#Degradado_sin_nombre_257);}.cls-5{stroke:url(#Degradado_sin_nombre_4-4);}.cls-6{stroke:url(#Degradado_sin_nombre_4-5);}.cls-7{stroke:url(#Degradado_sin_nombre_4-6);}.cls-8{fill:url(#Degradado_sin_nombre_257-2);}.cls-9{fill:url(#Degradado_sin_nombre_257-3);}</style><linearGradient id="Degradado_sin_nombre_4" x1="1" y1="116.74" x2="144.4" y2="116.74" gradientUnits="userSpaceOnUse"><stop offset="0" stop-color="#debdc8"/><stop offset="1" stop-color="#16e6fc"/></linearGradient><linearGradient id="Degradado_sin_nombre_4-2" x1="1" y1="58.32" x2="144.4" y2="58.32" xlink:href="#Degradado_sin_nombre_4"/><linearGradient id="Degradado_sin_nombre_4-3" x1="1" y1="1.21" x2="144.4" y2="1.21" xlink:href="#Degradado_sin_nombre_4"/><linearGradient id="Degradado_sin_nombre_257" x1="74" y1="65" x2="96" y2="65" gradientUnits="userSpaceOnUse"><stop offset="0" stop-color="#debdc8"/><stop offset="0.6" stop-color="#16e6fc"/><stop offset="0.69" stop-color="#13e2e9"/><stop offset="0.88" stop-color="#0ad8b8"/><stop offset="1" stop-color="#04d094"/></linearGradient><linearGradient id="Degradado_sin_nombre_4-4" x1="28.05" y1="145.31" x2="40.03" y2="2.41" xlink:href="#Degradado_sin_nombre_4"/><linearGradient id="Degradado_sin_nombre_4-5" x1="86.26" y1="150.19" x2="98.25" y2="7.29" xlink:href="#Degradado_sin_nombre_4"/><linearGradient id="Degradado_sin_nombre_4-6" x1="143.18" y1="154.97" x2="155.16" y2="12.07" xlink:href="#Degradado_sin_nombre_4"/><linearGradient id="Degradado_sin_nombre_257-2" x1="36" y1="139" x2="48" y2="139" xlink:href="#Degradado_sin_nombre_257"/><linearGradient id="Degradado_sin_nombre_257-3" x1="123" y1="12" x2="135" y2="12" xlink:href="#Degradado_sin_nombre_257"/></defs><path class="cls-1" d="M1.5,117.5A14.83,14.83,0,0,1,1.78,116"/><path class="cls-2" d="M2.6,113.14c3.66-11,19-39.42,79.9-46.64,65.6-7.77,62.66-51.3,60.62-63.07"/><path class="cls-3" d="M142.84,2C142.64,1,142.5.5,142.5.5"/><circle class="cls-4" cx="85" cy="65" r="11"/><path class="cls-5" d="M27.34,144.75a13.23,13.23,0,0,0,1.48-.15"/><path class="cls-6" d="M31.77,144C43,141.29,72.64,128.43,84.93,68.3c13.22-64.72,56.35-58.15,67.91-55.14"/><path class="cls-7" d="M154.29,13.56c.92.28,1.42.46,1.42.46"/><circle class="cls-8" cx="42" cy="139" r="6"/><circle class="cls-9" cx="129" cy="12" r="6"/></svg>